<svg xmlns="http://www.w3.org/2000/svg" viewBox="0 0 24 24" role="img" aria-label="American Express">
  <rect width="24" height="24" rx="4" fill="#006FCF"/>
  <path fill="#fff" d="M2.5 10.5h1.8l.45-1.1.45 1.1h3.3l.55-1.1.55 1.1h3.85l-1.1-2.2 1.1-2.2H10.5l-.55 1.1-.55-1.1H6.1l-.45 1.1-.45-1.1H2.5v4.4zm12.2-4.4 1.55 3.1-1.55 3.1h2.05l.75-1.5.75 1.5H21.5v-4.4h-1.85l-.75 1.5-.75-1.5h-2.05zm-8.95 1.5h1.35l.75 1.5-.75 1.5H5.75l.75-1.5-.75-1.5zm8.2 0h1.1l.55 1.1-.55 1.1h-1.1l-.55-1.1.55-1.1z"/>
</svg>
